<svg width="25" height="22" viewBox="0 0 25 22" fill="none" xmlns="http://www.w3.org/2000/svg">
<path d="M24.7148 19.654C23.9058 19.0056 23.1975 18.2622 22.6091 17.4439C21.9666 16.3143 21.5816 15.0807 21.4765 13.8155V10.0891C21.4821 8.10195 20.6804 6.18133 19.2221 4.68813C17.7638 3.19494 15.7493 2.23195 13.557 1.98011V1.00703C13.557 0.739948 13.4391 0.483807 13.229 0.294952C13.019 0.106097 12.7341 0 12.4371 0C12.14 0 11.8552 0.106097 11.6451 0.294952C11.4351 0.483807 11.3171 0.739948 11.3171 1.00703V1.9952C9.14451 2.26519 7.15434 3.234 5.71521 4.72218C4.27608 6.21036 3.48551 8.11706 3.48993 10.0891V13.8155C3.38486 15.0807 2.99981 16.3143 2.35738 17.4439C1.77926 18.2603 1.08238 19.0036 0.285235 19.654C0.195748 19.7247 0.124028 19.8117 0.0748468 19.9093C0.0256657 20.0068 0.000150836 20.1127 0 20.2198V21.2457C0 21.4457 0.0883866 21.6376 0.245716 21.7791C0.403045 21.9205 0.616429 22 0.838926 22H24.1611C24.3836 22 24.597 21.9205 24.7543 21.7791C24.9116 21.6376 25 21.4457 25 21.2457V20.2198C24.9998 20.1127 24.9743 20.0068 24.9252 19.9093C24.876 19.8117 24.8043 19.7247 24.7148 19.654ZM1.74497 20.4913C2.52551 19.8134 3.21275 19.0536 3.79195 18.2284C4.60118 16.8641 5.07335 15.3589 5.17617 13.8155V10.0891C5.1429 9.2051 5.30782 8.32407 5.66111 7.49853C6.0144 6.67299 6.54884 5.91981 7.23259 5.28385C7.91635 4.64789 8.73544 4.14215 9.64109 3.79674C10.5467 3.45134 11.5204 3.27334 12.5042 3.27334C13.4879 3.27334 14.4616 3.45134 15.3673 3.79674C16.273 4.14215 17.092 4.64789 17.7758 5.28385C18.4596 5.91981 18.994 6.67299 19.3473 7.49853C19.7006 8.32407 19.8655 9.2051 19.8322 10.0891V13.8155C19.935 15.3589 20.4072 16.8641 21.2164 18.2284C21.7956 19.0536 22.4829 19.8134 23.2634 20.4913H1.74497Z" fill="#EA2125"/>
</svg>
