<svg width="48" height="48" viewBox="0 0 48 48" fill="none" xmlns="http://www.w3.org/2000/svg">
<path d="M22.8253 7.47202C12.6867 7.47202 7.59733 14.0547 6.408 18.9227C5.53733 22.4867 6.85733 26.648 7.26 31.2C7.616 35.24 9.97067 38.632 12.384 39.3187C15.8547 43.6973 19.544 43.5093 25.74 43.5093C37.8373 43.5093 42.3693 34.4667 42.3693 24.0707C42.368 16.124 36.7653 7.47202 22.8253 7.47202Z" fill="#963B22"/>
<path d="M37.6785 24.92C36.5079 23.2987 35.0092 21.9947 31.7239 21.532C32.9559 22.096 34.1359 24.0467 34.2905 25.1253C34.4452 26.204 34.5985 27.076 33.6239 25.9987C29.7159 21.68 25.4612 23.38 21.2452 20.7427C18.2999 18.9 17.4025 16.8613 17.4025 16.8613C17.4025 16.8613 17.0439 19.5813 12.5772 22.3547C11.2825 23.1587 9.73853 24.948 8.88119 27.5907C8.26386 29.4893 8.33319 30.6667 8.48519 32.004C10.0612 40.524 15.8492 45.3333 23.9999 45.3333C32.1425 45.3333 37.9225 41.484 39.5039 32.5693C39.5332 32.1853 39.5639 31.8013 39.5639 31.4107C39.5639 28.076 39.0132 26.768 37.6785 24.92Z" fill="#D4AB88"/>
<path d="M30.2759 35.0573C29.7599 34.5413 29.0359 34.8013 28.4039 35.044C27.7719 35.288 26.3333 36 23.9999 36C21.6666 36 20.2279 35.288 19.5959 35.044C18.9639 34.8 18.2399 34.5413 17.7239 35.0573C17.6 35.181 17.5017 35.328 17.4346 35.4897C17.3675 35.6515 17.333 35.8249 17.333 36C17.333 36.1751 17.3675 36.3485 17.4346 36.5102C17.5017 36.672 17.6 36.8189 17.7239 36.9427C17.8999 37.12 20.3053 38.6667 23.9999 38.6667C27.6946 38.6667 30.0999 37.12 30.2759 36.9427C30.3999 36.8189 30.4982 36.672 30.5653 36.5102C30.6323 36.3485 30.6669 36.1751 30.6669 36C30.6669 35.8249 30.6323 35.6515 30.5653 35.4897C30.4982 35.328 30.3999 35.181 30.2759 35.0573ZM25.3333 33.3333H22.6666C22.313 33.3333 21.9738 33.1928 21.7238 32.9428C21.4738 32.6928 21.3333 32.3536 21.3333 32C21.3333 31.6464 21.4738 31.3072 21.7238 31.0572C21.9738 30.8071 22.313 30.6667 22.6666 30.6667H25.3333C25.6869 30.6667 26.026 30.8071 26.2761 31.0572C26.5261 31.3072 26.6666 31.6464 26.6666 32C26.6666 32.3536 26.5261 32.6928 26.2761 32.9428C26.026 33.1928 25.6869 33.3333 25.3333 33.3333Z" fill="#C1694F"/>
<path d="M18.6668 30.6667C18.3132 30.6667 17.9741 30.5262 17.724 30.2761C17.474 30.0261 17.3335 29.6869 17.3335 29.3333V28C17.3335 27.6464 17.474 27.3072 17.724 27.0572C17.9741 26.8071 18.3132 26.6667 18.6668 26.6667C19.0205 26.6667 19.3596 26.8071 19.6096 27.0572C19.8597 27.3072 20.0002 27.6464 20.0002 28V29.3333C20.0002 29.6869 19.8597 30.0261 19.6096 30.2761C19.3596 30.5262 19.0205 30.6667 18.6668 30.6667ZM29.3335 30.6667C28.9799 30.6667 28.6407 30.5262 28.3907 30.2761C28.1406 30.0261 28.0002 29.6869 28.0002 29.3333V28C28.0002 27.6464 28.1406 27.3072 28.3907 27.0572C28.6407 26.8071 28.9799 26.6667 29.3335 26.6667C29.6871 26.6667 30.0263 26.8071 30.2763 27.0572C30.5264 27.3072 30.6668 27.6464 30.6668 28V29.3333C30.6668 29.6869 30.5264 30.0261 30.2763 30.2761C30.0263 30.5262 29.6871 30.6667 29.3335 30.6667Z" fill="#662113"/>
</svg>
