<svg width="25" height="23" viewBox="0 0 25 23" fill="none" xmlns="http://www.w3.org/2000/svg">
<path d="M24.676 11.8726L13.4272 0.364239C12.9535 -0.121413 12.0436 -0.121413 11.5699 0.364239L0.321194 11.8726C0.159282 12.0378 0.0530046 12.2428 0.0152834 12.4627C-0.0224379 12.6825 0.0100223 12.9077 0.108717 13.1109C0.308695 13.5263 0.756145 13.7933 1.24984 13.7933H3.74956V21.8492C3.74956 22.1544 3.88124 22.4471 4.11564 22.6629C4.35003 22.8788 4.66794 23 4.99942 23H8.749C9.08049 23 9.39839 22.8788 9.63279 22.6629C9.86718 22.4471 9.99886 22.1544 9.99886 21.8492V17.2458H14.9983V21.8492C14.9983 22.1544 15.13 22.4471 15.3644 22.6629C15.5988 22.8788 15.9167 23 16.2482 23H19.9977C20.3292 23 20.6471 22.8788 20.8815 22.6629C21.1159 22.4471 21.2476 22.1544 21.2476 21.8492V13.7933H23.7473C23.9894 13.7943 24.2265 13.7304 24.4298 13.6094C24.6331 13.4884 24.7937 13.3155 24.8922 13.1119C24.9906 12.9083 25.0226 12.6827 24.9842 12.4626C24.9458 12.2426 24.8387 12.0376 24.676 11.8726Z" fill="#EA2125"/>
</svg>
