<svg width="25" height="23" viewBox="0 0 25 23" fill="none" xmlns="http://www.w3.org/2000/svg">
<path d="M24.3184 12.2221L24.32 12.2237C24.4141 12.3191 24.4714 12.4327 24.4916 12.5486C24.5118 12.6641 24.4955 12.7836 24.442 12.8943L24.8922 13.1119L24.442 12.8943C24.3883 13.0055 24.2973 13.1064 24.1741 13.1797C24.0506 13.2532 23.9029 13.2939 23.7493 13.2933H23.7473H21.2476H20.7476V13.7933V21.8492C20.7476 22.0078 20.6795 22.1693 20.5429 22.2951C20.4048 22.4222 20.2093 22.5 19.9977 22.5H16.2482C16.0366 22.5 15.8411 22.4222 15.7031 22.2951C15.5664 22.1693 15.4983 22.0078 15.4983 21.8492V17.2458V16.7458H14.9983H9.99886H9.49886V17.2458V21.8492C9.49886 22.0078 9.43078 22.1693 9.2941 22.2951C9.15604 22.4222 8.96059 22.5 8.749 22.5H4.99942C4.78784 22.5 4.59238 22.4222 4.45432 22.2951C4.31764 22.1693 4.24956 22.0078 4.24956 21.8492V13.7933V13.2933H3.74956H1.24984C0.930302 13.2933 0.668395 13.1208 0.559244 12.894L0.558459 12.8924C0.504821 12.782 0.488277 12.6627 0.508081 12.5472C0.527944 12.4315 0.584756 12.318 0.678341 12.2225L0.678757 12.2221L11.9275 0.713737L11.9279 0.713359C12.0537 0.58432 12.2612 0.5 12.4986 0.5C12.736 0.5 12.9434 0.58432 13.0693 0.71336L13.0697 0.713737L24.3184 12.2221Z" stroke="#666666"/>
</svg>
