<svg width="20" height="22" viewBox="0 0 20 22" fill="none" xmlns="http://www.w3.org/2000/svg">
<path d="M10 0.75C11.1029 0.75 12.1768 1.23128 12.9806 2.11542C13.7865 3.00193 14.25 4.21837 14.25 5.5C14.25 6.78163 13.7865 7.99807 12.9806 8.88458C12.1768 9.76872 11.1029 10.25 10 10.25C8.89715 10.25 7.82318 9.76872 7.01942 8.88458C6.2135 7.99807 5.75 6.78163 5.75 5.5C5.75 4.21837 6.2135 3.00193 7.01942 2.11542C7.82318 1.23128 8.89715 0.75 10 0.75ZM10 14.5C12.6609 14.5 15.0316 15.0943 16.7104 16.0176C18.4161 16.9557 19.25 18.1304 19.25 19.25V21.25H0.75V19.25C0.75 18.1304 1.58392 16.9557 3.28956 16.0176C4.96837 15.0943 7.33913 14.5 10 14.5Z" stroke="#666666" stroke-width="1.5"/>
</svg>
